<svg xmlns="http://www.w3.org/2000/svg" viewBox="0 0 456.02 376.19"><defs><style>.cls-1{isolation:isolate;}.cls-2{fill:#dcedf9;}.cls-3{fill:#0077eb;}.cls-4{fill:#0059d3;}.cls-5{fill:#008eff;}.cls-6{fill:#ffaa01;}.cls-7{fill:#f88800;}.cls-8{fill:#fdcc50;}.cls-9{fill:#f9af8b;}.cls-10{fill:#fff;}.cls-11{fill:#2e3052;}.cls-12{fill:#001030;}.cls-13{fill:#524e84;}.cls-14{fill:#1f2232;}.cls-15{mix-blend-mode:screen;}.cls-16{fill:#fc8664;}.cls-17{fill:#fd664d;}.cls-18{fill:#000b29;}</style></defs><g class="cls-1"><g id="OBJECTS"><path class="cls-2" d="M428.2,427.63c-22.72-17.26-61.59-60.1-10.41-127.35,63.28-83.16-12.5-117.27-85.15-113.71C274.2,189.43,208.42,116,142.81,129.09c-87.09,17.43-30.54,92.43-89.59,132.83C2.86,296.38,24.48,401.37,90,427.63Z" transform="translate(-21.99 -68.48)"/><path class="cls-2" d="M469.21,275.13c-.35-12.33-11.84-17.11-19.51-8.19a38.48,38.48,0,0,0-9.37,22.3c-1.76,22,17.48,15.61,24.66,3.84C468.06,288.06,469.39,281.37,469.21,275.13Z" transform="translate(-21.99 -68.48)"/><path class="cls-2" d="M257.55,124.74c-12.12-2.3-19.25,7.9-12.17,17.3A38.5,38.5,0,0,0,265.15,156c21.11,6.41,19-13.74,9-23.28C269.93,128.62,263.68,125.9,257.55,124.74Z" transform="translate(-21.99 -68.48)"/><path class="cls-2" d="M57.21,237.72c4.85-11.34-3.57-20.5-14.28-15.61a38.5,38.5,0,0,0-17.85,16.31c-10.81,19.23,9.32,21.5,20.78,13.83C50.75,249,54.76,243.45,57.21,237.72Z" transform="translate(-21.99 -68.48)"/><ellipse class="cls-2" cx="228.38" cy="362.51" rx="207.76" ry="13.68"/><path class="cls-3" d="M452.53,318.78c-12.72,12.72,1.47,13.8-7.87,23.4-8.5,8.75-21.06.23-20.22,21.61.18,4.68-3.22,8.15-8,9.93a18.22,18.22,0,0,1-20.28-5.16c-.38-.43-.75-.89-1.09-1.36a18.54,18.54,0,0,1-2.24-18.13c2.16-5.35,6-10.6,12.76-12.7,15.91-4.91,7.08-26,20.52-26.9,16.22-1.12,16.8-7.06,28.3-15.08C466.61,285.89,469.77,301.55,452.53,318.78Z" transform="translate(-21.99 -68.48)"/><path class="cls-4" d="M446.83,311.83c-.36.37-29.85,30.78-50.67,56.73-.38-.43-.75-.89-1.09-1.36,20.87-26,50.18-56.19,50.54-56.55a.84.84,0,0,1,1.2,0A.85.85,0,0,1,446.83,311.83Z" transform="translate(-21.99 -68.48)"/><path class="cls-5" d="M455.79,361.23c-19.92,11.73-2.61,17.65-17.32,26.59-13.41,8.16-26.29-6.49-32.14,20.39-1.28,5.88-6.63,9.11-13.14,9.78A23.4,23.4,0,0,1,369.6,405c-.34-.66-.64-1.34-.92-2a23.84,23.84,0,0,1,3.05-23.29c4.41-6,10.86-11.27,20-11.7,21.38-1,17.17-30.06,34.2-26.88,20.54,3.83,23.18-3.38,40.08-9.65C483.91,324.83,482.8,345.33,455.79,361.23Z" transform="translate(-21.99 -68.48)"/><path class="cls-3" d="M450.93,350.75c-.56.34-47.07,28.69-81.33,54.29-.34-.66-.64-1.34-.92-2,34.34-25.6,80.55-53.78,81.12-54.12a1.09,1.09,0,0,1,1.5.36A1.1,1.1,0,0,1,450.93,350.75Z" transform="translate(-21.99 -68.48)"/><path class="cls-3" d="M67.12,173.52c6.84,16.63-6.67,12.16-1.75,24.62,4.47,11.35,19.34,8.33,10.33,27.73-2,4.25-.17,8.76,3.56,12.24A18.18,18.18,0,0,0,100,241.17c.53-.25,1-.53,1.54-.83a18.54,18.54,0,0,0,9.05-15.87c.07-5.77-1.44-12.09-6.88-16.64-12.79-10.66,3.48-26.7-8.57-32.73-14.53-7.28-12.78-13-20.3-24.82C66.81,137.74,57.86,151,67.12,173.52Z" transform="translate(-21.99 -68.48)"/><path class="cls-4" d="M75.06,169.3c.19.48,15.69,39.9,24.89,71.87.53-.25,1-.53,1.54-.83-9.25-32-24.65-71.19-24.84-71.66a.85.85,0,0,0-1.59.62Z" transform="translate(-21.99 -68.48)"/><path class="cls-5" d="M47.65,217c14.42,18.08-3.86,17.41,6.68,31,9.61,12.4,26.88,3.33,22.73,30.52-.91,6,2.94,10.87,8.79,13.83a23.4,23.4,0,0,0,26.65-3.66c.55-.5,1.08-1,1.59-1.58a23.81,23.81,0,0,0,5.47-22.85c-2-7.14-6.12-14.4-14.47-18.06-19.62-8.57-5.3-34.21-22.35-37.33-20.55-3.76-20.44-11.44-34-23.34C34.4,172.92,28.11,192.47,47.65,217Z" transform="translate(-21.99 -68.48)"/><path class="cls-3" d="M55.94,208.91c.4.52,33.71,43.63,56.56,79.78.55-.5,1.08-1,1.59-1.58-22.92-36.18-56-79-56.42-79.54a1.09,1.09,0,0,0-1.73,1.34Z" transform="translate(-21.99 -68.48)"/><path class="cls-5" d="M144.92,201.23c5.81-4,20.36,5.84,28,17.75l-6.75-18.91a41.59,41.59,0,0,0-13.4-7.46c-10.4-3.68-20.81-9.45-15-13.44,5.45-3.73,18.61,4.69,26.49,15.59l-8.66-24.28a27.63,27.63,0,0,0-7.58-4c-6.55-2.32-13.11-6-9.44-8.47,3.18-2.18,10.53,2.21,15.54,8.33l-2.81-7.87a39.39,39.39,0,0,0-6-8.53c-6.67-6.91-11.72-14.67-6.57-15.8s13.58,12.4,14.91,24.63l1.44,4.05c-1.12-8.89,2.08-19.66,6.53-20s1.65,6.59-1.94,12.54a24.73,24.73,0,0,0-3.7,10l6.82,19.13c-1.73-14.08,3.33-31.07,10.38-31.67s2.62,10.46-3.09,19.89c-4.32,7.13-5.53,12.8-5.86,15.77l8.18,22.93c-1.45-13.91,3.53-30.8,10.48-30.86,5.35,0,3.71,7.52-2.68,18.19A45.18,45.18,0,0,0,174,215.87l3.85,10.8a3.5,3.5,0,0,1-2,.71l-1.54-4.3c-2.16-2.09-6.68-5.66-14.44-8.41C149.52,211,139.1,205.22,144.92,201.23Z" transform="translate(-21.99 -68.48)"/><path class="cls-5" d="M93.8,361.48c-6,3.75-2.74,21,5.17,32.72L84.31,380.49a41.14,41.14,0,0,1-1.52-15.27c.75-11-.4-22.85-6.38-19.09-5.59,3.52-3.09,18.94,3.78,30.51L61.35,359a27.29,27.29,0,0,1-.65-8.53c.47-6.94-.25-14.41-4-12C53.42,340.52,54.53,349,58.15,356L52,350.33a39.58,39.58,0,0,1-5.45-8.89c-3.68-8.87-8.8-16.58-11.88-12.31s6,17.39,16.67,23.47l3.14,2.94c-7.71-4.57-18.86-5.91-21-2s5.4,4.14,12.28,3.2a24.93,24.93,0,0,1,10.62.57L71.28,371.2c-12.23-7.19-29.83-9.3-33.19-3.07s8.56,6.57,19.49,5.07c8.25-1.12,13.94,0,16.79.89l17.8,16.63c-12.2-6.86-29.68-9-32.49-2.66-2.16,4.9,5.42,6.4,17.76,4.77A45.57,45.57,0,0,1,95.67,394l8.38,7.84a3.59,3.59,0,0,0,1.44-1.54l-3.34-3.12c-1.06-2.82-2.53-8.38-2-16.59C100.93,369.58,99.77,357.72,93.8,361.48Z" transform="translate(-21.99 -68.48)"/><rect class="cls-6" x="54.5" y="138.42" width="318.09" height="219.73"/><polygon class="cls-7" points="372.59 138.43 372.59 152.51 213.55 293.47 54.5 152.51 54.5 138.43 213.54 279.87 372.59 138.43"/><polygon class="cls-7" points="182.91 252.13 63.72 358.14 54.5 358.14 54.5 352.54 176.05 244.43 182.91 252.13"/><polygon class="cls-7" points="372.6 353.29 372.6 358.14 362.55 358.14 243.36 252.13 250.21 244.43 372.6 353.29"/><polygon class="cls-8" points="54.49 138.41 213.54 279.87 372.59 138.41 54.49 138.41"/><polygon class="cls-9" points="284.84 118.63 288.9 127.31 280.32 127.44 277.01 119.54 284.84 118.63"/><path class="cls-5" d="M308.18,195.24s1.77-2.36,3.17-2.26,12.19,8.68,15.89,9.39,3.36,4.48,1.81,4.48l-29.06,0s-.74-8.8.2-11.42S305.29,195.87,308.18,195.24Z" transform="translate(-21.99 -68.48)"/><path class="cls-10" d="M314.15,201.23a.51.51,0,0,1-.4,0,.52.52,0,0,1-.2-.71,8.09,8.09,0,0,1,2.7-2.81,3.59,3.59,0,0,1,3.67.17.52.52,0,0,1-.62.83,2.54,2.54,0,0,0-2.58-.07,7,7,0,0,0-2.27,2.4A.44.44,0,0,1,314.15,201.23Z" transform="translate(-21.99 -68.48)"/><path class="cls-10" d="M312.61,199.78a.59.59,0,0,1-.41-.05A.52.52,0,0,1,312,199a8.09,8.09,0,0,1,2.7-2.81,3.56,3.56,0,0,1,3.66.17.52.52,0,0,1,.11.73.5.5,0,0,1-.72.1,2.57,2.57,0,0,0-2.59-.07,7,7,0,0,0-2.26,2.4A.54.54,0,0,1,312.61,199.78Z" transform="translate(-21.99 -68.48)"/><path class="cls-10" d="M316.25,202.42a.5.5,0,0,1-.41,0,.51.51,0,0,1-.19-.7,7.84,7.84,0,0,1,2.69-2.82A3.57,3.57,0,0,1,322,199a.51.51,0,0,1,.11.72.52.52,0,0,1-.73.11,2.55,2.55,0,0,0-2.58-.08,7,7,0,0,0-2.26,2.4A.54.54,0,0,1,316.25,202.42Z" transform="translate(-21.99 -68.48)"/><path class="cls-11" d="M309.27,189.93l-3.8,1.24-2.11.13-3.63.21c-4.8-3.79-17.75-15.21-20.27-21.95,0,0-16.66,38.73-39.69,38.73-1.49,0,2.46-19.27,6.21-23.28,0,0,21.23-39.56,35-35.36C287.13,151.53,293.37,160.5,309.27,189.93Z" transform="translate(-21.99 -68.48)"/><path class="cls-12" d="M305.47,191.17l-2.11.13c-14.13-10.7-20.67-19.75-23.69-25.56a.44.44,0,0,0-.38-.26.24.24,0,0,0-.22.17c-6.76,15.92-14.88,25.48-20.5,30.7C252.45,202,248,203.9,247.78,204l-.26-.63-.26-.63c.05,0,4.49-1.89,10.45-7.43,5.5-5.13,13.46-14.52,20.11-30.17a1.55,1.55,0,0,1,1.42-1,1.79,1.79,0,0,1,1.65,1C283.92,171,290.65,180.21,305.47,191.17Z" transform="translate(-21.99 -68.48)"/><path class="cls-13" d="M295.92,188.92a12.2,12.2,0,0,0,2.63,3.5s8.14-.37,12.09-2.36l-1.77-4.14A60.59,60.59,0,0,1,295.92,188.92Z" transform="translate(-21.99 -68.48)"/><path class="cls-3" d="M306.56,133.4c-11.56,4.71-20.81,7.08-28.68,8h0c-.1,0-1.95.15-2.67.12a20.53,20.53,0,0,1-7.89-1.91c-2.07-1-5-3.46-8.13-6.44-3.83-3.7-7.87-8.14-10.66-11.3-2.18-2.47-3.6-4.16-3.6-4.16,1.93-2.87,6.2-5.49,9.92-6.88,0,0,7.76,12.92,19.51,19.26.64.35,1.3.67,2,1,2.68-.43,9.92-.76,13.06-1A125.16,125.16,0,0,0,304.84,128Z" transform="translate(-21.99 -68.48)"/><path class="cls-9" d="M304.55,127.61s1.61-4.06,3.8-5.22,8.43-5.25,9.76-4,1.05,7.1-4.54,12a11.2,11.2,0,0,1-7.15,3Z" transform="translate(-21.99 -68.48)"/><path class="cls-12" d="M318.51,122.1l-9.21,8.6a1.37,1.37,0,0,1-1.4.21l-5.64-2.73a.68.68,0,0,1-.34-.35v0l-.28-.94,1.5-.57,14.48-5.5.79-.3.29,1,0,.07s0,0,0,0A.59.59,0,0,1,318.51,122.1Z" transform="translate(-21.99 -68.48)"/><path class="cls-14" d="M317.61,120.78l-14.48,5.5,8.19-7.66a1.37,1.37,0,0,1,1.4-.21Z" transform="translate(-21.99 -68.48)"/><path class="cls-11" d="M307.62,130,302,127.22a.54.54,0,0,1-.15-1l9.21-8.6a1.31,1.31,0,0,1,1.39-.21l5.65,2.72a.55.55,0,0,1,.14,1l-9.2,8.6A1.35,1.35,0,0,1,307.62,130Z" transform="translate(-21.99 -68.48)"/><g class="cls-15"><path class="cls-11" d="M308.31,128.41l-4.38-2.11a.55.55,0,0,1-.14-1l7.16-6.69a1.33,1.33,0,0,1,1.39-.21l4.38,2.12a.54.54,0,0,1,.14,1l-7.16,6.69A1.33,1.33,0,0,1,308.31,128.41Z" transform="translate(-21.99 -68.48)"/></g><path class="cls-14" d="M318.72,121.57h0s0,0,0,0Z" transform="translate(-21.99 -68.48)"/><path class="cls-9" d="M308.19,120.33s1.31.2,1.45,1.33-1.09.68-1.87.43a1.89,1.89,0,0,0-1.6.13C305.82,122.62,305.88,120,308.19,120.33Z" transform="translate(-21.99 -68.48)"/><path class="cls-9" d="M314.05,126.45a51.86,51.86,0,0,1,3.64-5.23c1.05-1.23,1.58.55.87,1.8S316.42,126.8,314.05,126.45Z" transform="translate(-21.99 -68.48)"/><path class="cls-5" d="M218.19,187.41,213.63,158l-.27-1.74,0-1.32,1-41.64L226,109.41l.62-.21,2.59-.88,2.06-.69,12.2,1.68,2,.27.7.1,8.72,1.2c.08,27.61-2.57,33.57,2.54,56C259.94,175.38,250.52,205.38,218.19,187.41Z" transform="translate(-21.99 -68.48)"/><path class="cls-3" d="M224.68,179.89h0c9.13-2.55,15.8-8.85,19.78-13.69a52.8,52.8,0,0,0,6.52-10,.47.47,0,0,0-.23-.61.45.45,0,0,0-.6.23,51.23,51.23,0,0,1-6.41,9.81c-3.9,4.73-10.41,10.89-19.31,13.37a.47.47,0,0,0-.32.57A.45.45,0,0,0,224.68,179.89Z" transform="translate(-21.99 -68.48)"/><path class="cls-3" d="M235.07,180.38c7.94-2.17,14.61-8.87,14.91-9.18a.45.45,0,0,0,0-.64.46.46,0,0,0-.65,0c-.07.08-7.93,8-16.42,9.37a.46.46,0,0,0-.38.52.47.47,0,0,0,.53.38A17.17,17.17,0,0,0,235.07,180.38Z" transform="translate(-21.99 -68.48)"/><path class="cls-3" d="M229.45,121.66c7.93-2.2,14.59-8.91,14.89-9.22a.45.45,0,0,0,0-.64.46.46,0,0,0-.65,0c-.08.08-7.91,8-16.4,9.41a.46.46,0,0,0-.37.53.45.45,0,0,0,.52.37A17.17,17.17,0,0,0,229.45,121.66Z" transform="translate(-21.99 -68.48)"/><polygon class="cls-9" points="277.06 195.02 280.26 202.13 273.71 204.95 269.9 197.6 277.06 195.02"/><path class="cls-5" d="M300.82,270.46s.67-2.88,2-3.34,14.65,3.09,18.33,2.26,4.1,2,4,3.51-27.27,11.3-27.27,11.3-4.15-7.55-4.33-10.34S298.41,272.18,300.82,270.46Z" transform="translate(-21.99 -68.48)"/><path class="cls-10" d="M308.68,273.57a.57.57,0,0,1-.39.12.53.53,0,0,1-.46-.57,8.07,8.07,0,0,1,1.35-3.66,3.59,3.59,0,0,1,3.43-1.31.52.52,0,0,1,.39.62.51.51,0,0,1-.62.39,2.55,2.55,0,0,0-2.4,1,7.16,7.16,0,0,0-1.12,3.11A.52.52,0,0,1,308.68,273.57Z" transform="translate(-21.99 -68.48)"/><path class="cls-10" d="M306.68,272.85a.53.53,0,0,1-.85-.46,8.09,8.09,0,0,1,1.35-3.65,3.56,3.56,0,0,1,3.43-1.31.52.52,0,0,1-.23,1,2.55,2.55,0,0,0-2.4,1,7.14,7.14,0,0,0-1.12,3.1A.52.52,0,0,1,306.68,272.85Z" transform="translate(-21.99 -68.48)"/><path class="cls-10" d="M311.07,273.82a.57.57,0,0,1-.39.12.53.53,0,0,1-.46-.58,8.15,8.15,0,0,1,1.36-3.65A3.55,3.55,0,0,1,315,268.4a.52.52,0,0,1,.38.62.51.51,0,0,1-.62.39,2.55,2.55,0,0,0-2.4,1,6.92,6.92,0,0,0-1.11,3.11A.58.58,0,0,1,311.07,273.82Z" transform="translate(-21.99 -68.48)"/><path class="cls-11" d="M300.7,264.88a18.42,18.42,0,0,1-5.06,3c-.41.19-.84.37-1.26.54-.74.31-1.47.59-2.17.82,0,0-15.53-28.64-21.5-49.4,0,0-52.59-6.5-54.41-24.92a9.17,9.17,0,0,1,0-1.89,13.34,13.34,0,0,1,1.9-5.57c1.2-2.07,19.2-.06,28.92,2.67,0,0,26.37,10.27,36.12,20.86C288.16,216.3,300.7,264.88,300.7,264.88Z" transform="translate(-21.99 -68.48)"/><path class="cls-12" d="M295.64,267.84c-.41.19-.84.37-1.26.54-7.85-13-18.77-43.39-21.2-50.68a1.44,1.44,0,0,0-1.1-1c-25.55-4.8-40.28-11.51-48.13-16.28a51.29,51.29,0,0,1-7.65-5.58,9.17,9.17,0,0,1,0-1.89,47.29,47.29,0,0,0,8.52,6.4c7.76,4.68,22.29,11.27,47.52,16a2.81,2.81,0,0,1,2.15,1.87C276.91,224.57,287.87,255.09,295.64,267.84Z" transform="translate(-21.99 -68.48)"/><path class="cls-13" d="M289.41,266.2l2.48,4s6.18-1.07,10.36-5.29l-1.55-3.55A110,110,0,0,1,289.41,266.2Z" transform="translate(-21.99 -68.48)"/><path class="cls-9" d="M205.7,198.29s3.58,4.85,3.28,7.36-3.53,7.25-6.12,7.47,3-6.08,1.66-5.87c-1.59.24-12.32,9.05-14.59,9.05s2.67-4.09,4.59-5.13c0,0-5.08,2.27-6.26,3.46s-2-1.36,3.86-4.95c0,0-5.42,3.07-5.79,3.12-1.2.16,2.24-3.87,5.2-5.33,0,0-4.34,2.12-4.79,2.13-.61,0,.7-1.41,3.93-3.2,2.9-1.61,7.65-9,7.65-9Z" transform="translate(-21.99 -68.48)"/><path class="cls-3" d="M214.41,113.32s-12,23.14-14.79,47.34l-1.3,36.75s1.24,2.62,7.38.88l5.94-36.75,4.55-16.81S218.26,124,214.41,113.32Z" transform="translate(-21.99 -68.48)"/><circle class="cls-11" cx="238.3" cy="85.98" r="13.31" transform="translate(66.25 221.61) rotate(-73.52)"/><path class="cls-11" d="M251.61,85.91s3.89-.37,4-4.06c.12-3.14-3.83-1.79-3.09-4.13s1.83-4.39-1.16-5.54c-2.62-1-3,.85-6.08-2.48-3.65-3.93-8.18,2.88-12,2.44-5.6-.66-6.85,2.35-7.84,4.76a4.76,4.76,0,0,0,.83,4.55Z" transform="translate(-21.99 -68.48)"/><path class="cls-16" d="M248.56,91.58s2.56-2.4,3.7.16-2.24,8.94-5.73,6.62Z" transform="translate(-21.99 -68.48)"/><path class="cls-17" d="M247.73,96.41a.32.32,0,0,0,.35-.17,5,5,0,0,1,3.29-2.46.33.33,0,0,0,.26-.38.33.33,0,0,0-.38-.25,5.58,5.58,0,0,0-3.76,2.8.34.34,0,0,0,.15.44Z" transform="translate(-21.99 -68.48)"/><path class="cls-17" d="M250.1,95.75a.37.37,0,0,0,.18,0,.33.33,0,0,0,.17-.43,3,3,0,0,0-1-1.17.31.31,0,0,0-.45.08.32.32,0,0,0,.09.45,2.36,2.36,0,0,1,.79.89A.34.34,0,0,0,250.1,95.75Z" transform="translate(-21.99 -68.48)"/><path class="cls-9" d="M231.26,101.57l-1.19,6.73s2.24,3.45,4.91,4.16,4.89-2.21,4.89-2.21l1.14-6.47Z" transform="translate(-21.99 -68.48)"/><path class="cls-16" d="M231.26,101.57l-.53,3c1.46,2.34,4.61,3.41,9.51,3.55l.77-4.33Z" transform="translate(-21.99 -68.48)"/><path class="cls-9" d="M227.22,83.05a69.06,69.06,0,0,0-.63,8.65c0,.67,0,1.31.1,1.89.54,5.2,2.58,14.32,13.12,12.54,4.65-.79,7.54-5.31,9.32-10.11a48.77,48.77,0,0,0,2.29-9.08,7.13,7.13,0,0,0-2.51-6.6c-5.26-4.35-11.65-4.21-16-3.36A7.1,7.1,0,0,0,227.22,83.05Z" transform="translate(-21.99 -68.48)"/><path class="cls-11" d="M243.42,91.58c-.13.71.14,1.36.6,1.44s.93-.43,1-1.15-.14-1.37-.59-1.45S243.55,90.86,243.42,91.58Z" transform="translate(-21.99 -68.48)"/><path class="cls-11" d="M233.74,89.86c-.12.72.14,1.37.6,1.45s.93-.44,1.06-1.15-.14-1.37-.6-1.45S233.87,89.15,233.74,89.86Z" transform="translate(-21.99 -68.48)"/><path class="cls-11" d="M247.64,88.21s-3.2-2-6-1.3v1.27a11.41,11.41,0,0,1,5.61,1.41C247.47,89.06,247.76,88.83,247.64,88.21Z" transform="translate(-21.99 -68.48)"/><path class="cls-11" d="M231.9,85.42s3.68-.75,6.13.86l-.44,1.19a11.41,11.41,0,0,0-5.75-.59C231.76,86.28,231.57,86,231.9,85.42Z" transform="translate(-21.99 -68.48)"/><path class="cls-16" d="M237.94,95.88a3.61,3.61,0,0,1-1.12-.45.33.33,0,0,1-.1-.45.33.33,0,0,1,.45-.1c.27.17.93.48,1.26.35a.34.34,0,0,0,.21-.27,48.48,48.48,0,0,0,.67-4.93.33.33,0,0,1,.65.06,49.51,49.51,0,0,1-.7,5,1,1,0,0,1-.6.7A1.46,1.46,0,0,1,237.94,95.88Z" transform="translate(-21.99 -68.48)"/><path class="cls-10" d="M241.61,98.54c-.49,1.27-1.79,3.54-4.71,3s-3.36-2.87-3.38-4.44Z" transform="translate(-21.99 -68.48)"/><path class="cls-16" d="M236.64,103.23a3.43,3.43,0,0,1-1.48-.71.33.33,0,0,1,.43-.49,2.67,2.67,0,0,0,1.17.56,2.63,2.63,0,0,0,1.22-.13.31.31,0,0,1,.42.18.32.32,0,0,1-.18.42A3.29,3.29,0,0,1,236.64,103.23Z" transform="translate(-21.99 -68.48)"/><path class="cls-11" d="M248.51,93.77a13.76,13.76,0,0,0,1-3.84c0-1.6-1.15-2.73-.47-4.14s-.59-3.29-1.71-3.76-3.91-.38-6.35-2.11-6.9-1.58-7.91-.07c-1.22,1.82-.07,2.21-2.82,3.93-1.1.68-.36,3.09-.46,4.56a9.4,9.4,0,0,1-.24,1.7l-.07.36-2.85-.5c.08-2.29.34-4.78.6-6.85a7.1,7.1,0,0,1,5.7-6.07c4.34-.85,10.73-1,16,3.36a7.1,7.1,0,0,1,2.5,6.6,50.86,50.86,0,0,1-1.6,7.06Z" transform="translate(-21.99 -68.48)"/><path class="cls-9" d="M227.66,91.35a12.17,12.17,0,0,0,.22-2.25,2.7,2.7,0,0,0-1.08-2.59,1.77,1.77,0,0,0-2.44.17c-2,2-1.48,9.44,2.59,8.46Z" transform="translate(-21.99 -68.48)"/><path class="cls-16" d="M226.58,92.94a.32.32,0,0,1-.2-.34,5,5,0,0,0-1.54-3.8.33.33,0,1,1,.44-.48A5.57,5.57,0,0,1,227,92.67a.31.31,0,0,1-.35.29Z" transform="translate(-21.99 -68.48)"/><path class="cls-16" d="M224.91,91.14a.33.33,0,0,1-.15-.11.34.34,0,0,1,.07-.46,3,3,0,0,1,1.49-.47.33.33,0,0,1,0,.65,2.29,2.29,0,0,0-1.15.35A.32.32,0,0,1,224.91,91.14Z" transform="translate(-21.99 -68.48)"/><path class="cls-9" d="M377.92,245.06A115,115,0,0,1,368.38,260a38.69,38.69,0,0,1-4.68,5.12c-2.53,2.24-5,3.42-7,2.42-7.47-3.69-24.13-33.06-24.13-33.06l4.1-4.77s7.41,8.39,12.84,13.41c5,4.63,8.84,8.09,8.84,8.09.69-1,1.43-2.16,2.2-3.36s1.66-2.62,2.52-4c6.24-10,13.76-21,13.76-21Z" transform="translate(-21.99 -68.48)"/><path class="cls-9" d="M337.74,232.55s1.69-2.78,1-5.26-1.29-8.11-4-8c-1,.06.46,2.41-.21,4.58a36.07,36.07,0,0,1-4.85-2.84c-1.72-1.26-5.26-3.32-6.91-4.26a.51.51,0,0,0-.71.68c.42.72,1.45,1.79,3.84,3.28,0,0-5.94-3.32-6.93-2.59s6.51,4.75,6.51,4.75-6.06-2.44-6.56-1.55c-.3.55,5.64,4,5.64,4s-5.9-1.82-4.8-.44c.32.4,11.53,5.48,13.87,11.37C333.66,236.35,336.92,234.56,337.74,232.55Z" transform="translate(-21.99 -68.48)"/><path class="cls-16" d="M368.38,260a38.69,38.69,0,0,1-4.68,5.12l-3.17-17.27c.81-1.27,1.66-2.62,2.52-4Z" transform="translate(-21.99 -68.48)"/><path class="cls-5" d="M377,222l-15.79,22.78,5,20.29,12.39-19.77S381,232.08,377,222Z" transform="translate(-21.99 -68.48)"/><polygon class="cls-9" points="363.15 348.4 363.15 355.59 369.86 355.48 370.3 347.86 363.15 348.4"/><path class="cls-11" d="M402.18,311.82c-.05.86-.28,5-.63,10.68-.95,15.72-2.72,43.65-3.75,49.92-1.07,6.44-.59,27.55-.24,38.6a6.64,6.64,0,0,1-1.9,4.84,7.58,7.58,0,0,1-1.56,1.19,7,7,0,0,1-3.37.87h-5.12a6.75,6.75,0,0,1-6.83-6.9c.29-9.34.64-26.39,0-39.55-.64-12.53.29-34.7,1-48.52h0c.29-5.52.54-9.7.64-11.41Z" transform="translate(-21.99 -68.48)"/><path class="cls-12" d="M380.4,311.54l21.78.28c-.05.86-.28,5-.63,10.68a94.22,94.22,0,0,1-21.79.45C380.05,317.43,380.3,313.25,380.4,311.54Z" transform="translate(-21.99 -68.48)"/><path class="cls-12" d="M395.57,391.31c.19,7.07.39,14.37.26,20.26,0,1.66-.09,3.07-.17,4.28a6.61,6.61,0,0,1-1.57,1.2c.13-1.41.23-3.21.28-5.51.13-5.85-.07-13.14-.26-20.19-.24-8.61-.46-16.75,0-20.22,1.05-7.58,3.38-48.68,4-59.65l1.46.07c-.61,11-3,52.14-4,59.77C395.12,374.67,395.34,382.76,395.57,391.31Z" transform="translate(-21.99 -68.48)"/><path class="cls-5" d="M386.86,423.79s-1.39-1.91-2.53-1.86-10.06,6.71-13.08,7.21-2.49,2.68-2,3.8,24,.09,24,.09.79-6.81.07-8.92S389.2,424.34,386.86,423.79Z" transform="translate(-21.99 -68.48)"/><path class="cls-10" d="M381.9,428.46a.47.47,0,0,0,.33,0,.41.41,0,0,0,.17-.56,6.34,6.34,0,0,0-2.14-2.29,3,3,0,0,0-3,.08.41.41,0,0,0-.1.57.43.43,0,0,0,.59.1,2.12,2.12,0,0,1,2.1,0,5.63,5.63,0,0,1,1.79,1.95A.42.42,0,0,0,381.9,428.46Z" transform="translate(-21.99 -68.48)"/><path class="cls-10" d="M383.18,427.32a.38.38,0,0,0,.33,0,.4.4,0,0,0,.18-.55,6.4,6.4,0,0,0-2.15-2.29,3,3,0,0,0-3,.07.42.42,0,0,0-.1.58.43.43,0,0,0,.59.09,2.13,2.13,0,0,1,2.1,0,5.44,5.44,0,0,1,1.79,1.95A.49.49,0,0,0,383.18,427.32Z" transform="translate(-21.99 -68.48)"/><path class="cls-10" d="M380.18,429.36a.42.42,0,0,0,.33,0,.41.41,0,0,0,.17-.56,6.44,6.44,0,0,0-2.14-2.29,2.94,2.94,0,0,0-3,.07.41.41,0,0,0-.1.58.41.41,0,0,0,.58.09,2.14,2.14,0,0,1,2.1,0,5.61,5.61,0,0,1,1.8,1.95A.38.38,0,0,0,380.18,429.36Z" transform="translate(-21.99 -68.48)"/><polygon class="cls-9" points="395.84 348.4 396.56 355.57 402.55 355.48 402.99 347.86 395.84 348.4"/><path class="cls-11" d="M430.16,371.47c-.67,13.16-.32,30.21,0,39.55a6.76,6.76,0,0,1-6.83,6.9h-5.11a6.9,6.9,0,0,1-3.15-.75,6.67,6.67,0,0,1-1.54-1.08,6.53,6.53,0,0,1-2.14-5.07c.34-11,.82-32.16-.25-38.6s-2.87-35.16-3.8-50.72c-.31-5.19-.52-8.9-.58-9.82l21.82.28c.06,1.11.16,2.81.28,5C429.54,329.57,430.9,357,430.16,371.47Z" transform="translate(-21.99 -68.48)"/><path class="cls-12" d="M428.83,317.14a217.46,217.46,0,0,1-21.52,4.56c-.31-5.19-.52-8.9-.58-9.82l21.82.28C428.61,313.27,428.71,315,428.83,317.14Z" transform="translate(-21.99 -68.48)"/><path class="cls-12" d="M414.77,411.54c.05,2.37.15,4.21.28,5.63a6.79,6.79,0,0,1-1.56-1.08c-.08-1.26-.15-2.75-.19-4.52-.13-5.89.07-13.19.26-20.26.23-8.55.45-16.64,0-20-1.05-7.63-3.4-48.83-4-59.78l1.46-.07c.62,11,2.95,52.08,4,59.66.48,3.47.26,11.61,0,20.22C414.84,398.4,414.64,405.69,414.77,411.54Z" transform="translate(-21.99 -68.48)"/><path class="cls-5" d="M420.89,423a27.65,27.65,0,0,1,3.9-.78c.84,0,6.5,6.21,8.4,6.57,3.46.67,3.46,5.95,1.36,6.21-6.08.76-16.48-1.75-16.48-1.75s-1-6.78-.54-8.91S419.19,423.57,420.89,423Z" transform="translate(-21.99 -68.48)"/><path class="cls-10" d="M425.92,428.74a.45.45,0,0,1-.32-.06.41.41,0,0,1-.12-.58,6.46,6.46,0,0,1,2.36-2.07,3,3,0,0,1,3,.35.41.41,0,0,1,0,.58.42.42,0,0,1-.59,0,2.14,2.14,0,0,0-2.09-.21,5.73,5.73,0,0,0-2,1.77A.48.48,0,0,1,425.92,428.74Z" transform="translate(-21.99 -68.48)"/><path class="cls-10" d="M424.76,427.49a.48.48,0,0,1-.33-.06.42.42,0,0,1-.11-.58,6.39,6.39,0,0,1,2.35-2.07,3,3,0,0,1,3,.35.4.4,0,0,1,.05.58.44.44,0,0,1-.6,0,2.13,2.13,0,0,0-2.09-.21,5.65,5.65,0,0,0-2,1.77A.46.46,0,0,1,424.76,427.49Z" transform="translate(-21.99 -68.48)"/><path class="cls-10" d="M427.55,429.8a.48.48,0,0,1-.33-.06.41.41,0,0,1-.11-.57,6.3,6.3,0,0,1,2.35-2.08,3,3,0,0,1,3,.35.4.4,0,0,1,.05.58.43.43,0,0,1-.6.05,2.09,2.09,0,0,0-2.09-.22,5.64,5.64,0,0,0-2,1.78A.44.44,0,0,1,427.55,429.8Z" transform="translate(-21.99 -68.48)"/><path class="cls-5" d="M433.5,314a121.28,121.28,0,0,1-59.05,0c-.1-7.2-.2-36,.36-59.59,0-.47,0-.93,0-1.39,0-.23,0-.46,0-.68v0c0-.29,0-.58,0-.87.42-15.58,1.15-28.3,2.41-30h0c2.94-4,17.68-10.26,21.76-13.07.34.53,2.35,3.51,5,3.73,2.88.25,5.45-3.08,5.45-3.08v-.63c4.09,2.82,17.45,8.66,20.38,12.59C433.08,225.32,433.63,301.77,433.5,314Z" transform="translate(-21.99 -68.48)"/><path class="cls-3" d="M380.82,243.35a72.55,72.55,0,0,0-5.27,9.66l-.37.8c-.13.27-.2.43-.21.44a.42.42,0,0,1-.16.19c0-.47,0-.93,0-1.39,0-.23,0-.46,0-.68v0c.22-.48.49-1,.79-1.65a58.27,58.27,0,0,1,4.42-7.86.46.46,0,0,1,.64-.09A.43.43,0,0,1,380.82,243.35Z" transform="translate(-21.99 -68.48)"/><path class="cls-3" d="M418.55,226h0A32.13,32.13,0,0,1,401,219.9a31.35,31.35,0,0,1-6.2-5.73.45.45,0,0,1,.09-.63.47.47,0,0,1,.64.09c.09.11,8.54,11,23.06,11.44a.45.45,0,1,1,0,.9Z" transform="translate(-21.99 -68.48)"/><path class="cls-3" d="M392.17,299a.44.44,0,0,1-.45-.41.45.45,0,0,1,.42-.48c12.85-.83,20.51-7.2,24.68-12.41a34.18,34.18,0,0,0,6-11.25.46.46,0,0,1,.56-.32.45.45,0,0,1,.33.54,34.73,34.73,0,0,1-6.19,11.56c-4.28,5.36-12.16,11.92-25.36,12.77Z" transform="translate(-21.99 -68.48)"/><path class="cls-3" d="M399.07,291a.45.45,0,0,1-.12-.88c11.16-2.95,13.32-12.09,13.34-12.18a.46.46,0,0,1,.54-.34.45.45,0,0,1,.35.53,15.71,15.71,0,0,1-2.56,5.27A20,20,0,0,1,399.19,291Z" transform="translate(-21.99 -68.48)"/><path class="cls-9" d="M448,313.24c-.28,3.91-2.68,6.82-2.69,9.39s-3,.9-1.65-4.19-.68-10-1.79-10,.35,5.73-.81,7.62-2.06-2.07-3.08-4.53-.47-7.83.49-11.55-3.77-27.33-3.15-34l-1.71-8.63-1-5-.18-5.26,9.12-3.54c.35,1.69.7,3.44,1.05,5.19l.45,2.33c1.22,6.29,2.32,12.49,2.77,16.46C447,278.54,445,301,445,301S448.22,309.57,448,313.24Z" transform="translate(-21.99 -68.48)"/><path class="cls-16" d="M443,251.09c-2.06,2.31-5.35,5.24-9.44,6.31l-1-5-.18-5.26,9.12-3.54c.35,1.69.7,3.44,1.05,5.19Z" transform="translate(-21.99 -68.48)"/><path class="cls-5" d="M445.55,246.11a19.57,19.57,0,0,1-3,2.65,17.43,17.43,0,0,1-10,3.61c-.5-14.57-1.24-26.87-2.33-30.48C432.18,224.22,441.43,235.69,445.55,246.11Z" transform="translate(-21.99 -68.48)"/><path class="cls-3" d="M426.32,241.89a71.93,71.93,0,0,1,5.27,9.66c.15.32.28.59.37.8l.2.43a.47.47,0,0,0,.42.27h0c0-.23,0-.46,0-.68h.4l-.42-.9c-.27-.57-.64-1.36-1.07-2.25a58.12,58.12,0,0,0-4.42-7.85.47.47,0,0,0-.64-.1A.44.44,0,0,0,426.32,241.89Z" transform="translate(-21.99 -68.48)"/><path class="cls-11" d="M418.07,185c0,7.89-5,13.32-13,13.32s-13.66-5.84-13.66-13.73,4.77-13.86,12.82-13.86C413.87,170.73,418.07,177.11,418.07,185Z" transform="translate(-21.99 -68.48)"/><path class="cls-16" d="M416.26,188.4s2.24-2.93,3.9-.51-.69,9.55-4.76,7.81Z" transform="translate(-21.99 -68.48)"/><path class="cls-17" d="M416.29,193.5a.34.34,0,0,0,.33-.25,5.29,5.29,0,0,1,3-3.11.33.33,0,0,0,.19-.43.35.35,0,0,0-.44-.2,5.89,5.89,0,0,0-3.4,3.56.33.33,0,0,0,.24.41Z" transform="translate(-21.99 -68.48)"/><path class="cls-17" d="M418.64,192.39a.34.34,0,0,0,.29-.52,3.05,3.05,0,0,0-1.29-1,.35.35,0,0,0-.46.17.33.33,0,0,0,.18.44,2.5,2.5,0,0,1,1,.77A.36.36,0,0,0,418.64,192.39Z" transform="translate(-21.99 -68.48)"/><path class="cls-16" d="M393.21,188.4s-2.24-2.93-3.9-.51.69,9.55,4.76,7.81Z" transform="translate(-21.99 -68.48)"/><path class="cls-17" d="M393.18,193.5a.34.34,0,0,1-.33-.25,5.29,5.29,0,0,0-3-3.11.33.33,0,0,1-.19-.43.35.35,0,0,1,.44-.2,5.89,5.89,0,0,1,3.4,3.56.33.33,0,0,1-.24.41Z" transform="translate(-21.99 -68.48)"/><path class="cls-17" d="M390.83,192.39a.34.34,0,0,1-.29-.52,3.05,3.05,0,0,1,1.29-1,.35.35,0,0,1,.46.17.33.33,0,0,1-.18.44,2.5,2.5,0,0,0-1,.77A.36.36,0,0,1,390.83,192.39Z" transform="translate(-21.99 -68.48)"/><path class="cls-9" d="M399.23,201.75v7.1s2.16,3.62,5.08,3.86,5.51-3.11,5.51-3.11v-7.35Z" transform="translate(-21.99 -68.48)"/><path class="cls-16" d="M399.23,201.75v3.15c2,2.13,5.44,2.67,10.59,1.92v-4.57Z" transform="translate(-21.99 -68.48)"/><path class="cls-9" d="M417.46,188.17a41.4,41.4,0,0,1-.59,4.67c-1,5.23-3.16,10.38-7.87,12-10.68,3.73-14.49-5.24-16-10.46-.16-.58-.31-1.23-.45-1.92-.24-1.25-.43-2.64-.58-4-.17-1.69-.29-3.41-.36-4.92a7.4,7.4,0,0,1,4.83-7.25c4.38-1.65,11-2.95,17.32.55a7.37,7.37,0,0,1,3.84,6.3C417.61,184.56,417.59,186.29,417.46,188.17Z" transform="translate(-21.99 -68.48)"/><path class="cls-11" d="M416.13,188.45c-.35.65-2.35,6.69-2.91,7.54-1.26-2.72-7.35-.74-7.35-.74a3.93,3.93,0,0,1-1.18.18,4.11,4.11,0,0,1-1.15-.17h0s-6.16-1.9-7.37,1c-.56-.85-2.3-6.78-2.63-7.76H392c.15,1.4.34,2.79.58,4,.14.69.29,1.34.45,1.92,1.53,5.22,5.34,14.19,16,10.46,4.71-1.65,6.9-6.8,7.87-12a41.4,41.4,0,0,0,.59-4.67Zm-5.74,11.06h0a6.42,6.42,0,0,1-1.43,1.07c-2.71,1.43-3,1.22-4.07,1.26a8.17,8.17,0,0,1-4.1-1.09,11.78,11.78,0,0,1-2-1.46s-1.1-3.67,5.87-2.75C411.69,195.36,410.51,198.79,410.39,199.51Z" transform="translate(-21.99 -68.48)"/><path class="cls-11" d="M409.31,189.32c0,.76.4,1.37.89,1.37s.89-.61.89-1.37-.4-1.37-.89-1.37S409.31,188.56,409.31,189.32Z" transform="translate(-21.99 -68.48)"/><path class="cls-11" d="M398.82,189.29c0,.76.4,1.38.89,1.38s.89-.62.89-1.38-.4-1.37-.89-1.37S398.82,188.54,398.82,189.29Z" transform="translate(-21.99 -68.48)"/><path class="cls-11" d="M413.73,185.45s-3.41-1.32-6-.21l.26,1.43s3.85-.32,5.79.45A2.4,2.4,0,0,0,413.73,185.45Z" transform="translate(-21.99 -68.48)"/><path class="cls-11" d="M396.77,185.45s3.41-1.32,6-.21l-.26,1.43s-3.86-.32-5.8.45A2.46,2.46,0,0,1,396.77,185.45Z" transform="translate(-21.99 -68.48)"/><path class="cls-16" d="M404.62,194.63a3.58,3.58,0,0,1-1.25-.26.33.33,0,0,1-.19-.44.35.35,0,0,1,.45-.18,2.13,2.13,0,0,0,1.38.13.38.38,0,0,0,.17-.32c.12-1.17-.21-5.12-.21-5.16a.35.35,0,0,1,.69-.06,50.66,50.66,0,0,1,.2,5.29,1,1,0,0,1-.5.83A1.44,1.44,0,0,1,404.62,194.63Z" transform="translate(-21.99 -68.48)"/><path class="cls-10" d="M409.31,197.1C409,198.49,408.1,201,405,201s-4.05-2.33-4.35-3.94Z" transform="translate(-21.99 -68.48)"/><path class="cls-11" d="M392,188.46h1.55c-.17-1.54-.41-4.24.87-4.63,4.07-1.22-1.2-4,.63-5.44s6.4-.8,9.58-.9a68.41,68.41,0,0,1,9.57.23c1.25.28.57,2.31.11,3.88s1.53,3.31,1.86,4.94a6.77,6.77,0,0,1,0,1.92h1.3c.16-2,.18-3.83.15-5.33a7.38,7.38,0,0,0-3.83-6.3c-6.3-3.5-12.95-2.2-17.33-.55a7.39,7.39,0,0,0-4.83,7.25C391.67,185,391.78,186.76,392,188.46Z" transform="translate(-21.99 -68.48)"/><path class="cls-10" d="M163.28,361.16H84.12c1.3-7.94,7.6-13.71,14.95-13.69l24.63.08,24.63-.08C155.67,347.45,162,353.22,163.28,361.16Z" transform="translate(-21.99 -68.48)"/><rect class="cls-10" x="68.35" y="291.55" width="4.31" height="73.81"/><rect class="cls-10" x="130.75" y="291.55" width="4.31" height="73.81"/><rect class="cls-2" x="72.67" y="312.23" width="58.08" height="4.16"/><path class="cls-3" d="M104.32,261.8s-13.23,17.64-15,33c-1.25,10.86,15,27.09,15,27.09l5.58-2.78-5.57-12.56c-2-6.12-4.42-8.53-2.62-14.71l4-8.7Z" transform="translate(-21.99 -68.48)"/><path class="cls-3" d="M146,261.54s13.05,18.8,14.13,34.24c.93,13.31-15,26.12-15,26.12l-4.62-2.29,6.39-12.69c2-6.12,2.93-9.81.22-16.47l-3.43-7.3Z" transform="translate(-21.99 -68.48)"/><path class="cls-5" d="M107,302l-8.76,27.88s37.94,4.84,49.54,1.71l-5.89-30.37L146,261.54a56.5,56.5,0,0,0-17.85-4.37c-9-.65-14.64.83-23.81,4.63Z" transform="translate(-21.99 -68.48)"/><path class="cls-3" d="M116.49,270.21c8.38-1,16.16-6.73,16.52-7a.48.48,0,0,0,.09-.66.45.45,0,0,0-.65-.09c-.09.06-9.26,6.83-18.07,6.95a.45.45,0,0,0-.46.47.46.46,0,0,0,.47.46A21,21,0,0,0,116.49,270.21Z" transform="translate(-21.99 -68.48)"/><polygon class="cls-9" points="101.25 351.1 101.93 357.25 108.48 357.4 109.03 352.3 101.25 351.1"/><path class="cls-12" d="M122.21,322s-16.95-.93-22.69,3.77-4.59,18.18,1.26,21.86,15.82,10.91,15.82,10.91l6.34,63.06,8.38.29s7.73-63.35,3.81-75.62S122.21,322,122.21,322Z" transform="translate(-21.99 -68.48)"/><path class="cls-11" d="M132.1,418.74a7,7,0,0,1-.22,4.32l-9.64-.22a11.16,11.16,0,0,1-.19-4.23Z" transform="translate(-21.99 -68.48)"/><path class="cls-10" d="M146.2,321.5H101.71l-4.11-24a3.42,3.42,0,0,1,3.36-4h46a3.41,3.41,0,0,1,3.36,4Z" transform="translate(-21.99 -68.48)"/><path class="cls-2" d="M142.63,326.73h-37.3a3.62,3.62,0,0,1-3.62-3.62V321.5h44.54v1.61A3.62,3.62,0,0,1,142.63,326.73Z" transform="translate(-21.99 -68.48)"/><path class="cls-2" d="M127.92,308.48a3.87,3.87,0,1,1-3.86-3.86A3.86,3.86,0,0,1,127.92,308.48Z" transform="translate(-21.99 -68.48)"/><polygon class="cls-9" points="73.44 333.79 71.99 339.88 77.86 341.04 80.26 335.6 73.44 333.79"/><path class="cls-11" d="M130.83,320.93s-11.36-3.91-18,4.31S95,402.87,95,402.87l7.64,3.15,24.57-61.64s20,11.42,22.42-4.81C151.56,326.73,130.83,320.93,130.83,320.93Z" transform="translate(-21.99 -68.48)"/><path class="cls-13" d="M104.39,402.84a7.31,7.31,0,0,1-1.61,4.17l-9.39-3.32a11.37,11.37,0,0,1,1.18-4.21Z" transform="translate(-21.99 -68.48)"/><path class="cls-5" d="M98.46,407.35a36.26,36.26,0,0,0-4.61-2c-1-.21-9.7,5.93-12.15,5.87-4.45-.11-5.87,6.43-3.35,7.31,7.31,2.57,20.85,2.26,20.85,2.26s3-8.13,3.06-10.87S100.39,408.58,98.46,407.35Z" transform="translate(-21.99 -68.48)"/><path class="cls-10" d="M90.69,413.15a.53.53,0,0,0,.41,0,.52.52,0,0,0,.3-.68,8.19,8.19,0,0,0-2.35-3.2,3.75,3.75,0,0,0-3.76-.36.52.52,0,0,0-.21.71.54.54,0,0,0,.72.21,2.69,2.69,0,0,1,2.64.3,7,7,0,0,1,2,2.72A.55.55,0,0,0,90.69,413.15Z" transform="translate(-21.99 -68.48)"/><path class="cls-10" d="M92.46,411.92a.55.55,0,0,0,.42,0,.53.53,0,0,0,.3-.68,8.26,8.26,0,0,0-2.36-3.2,3.72,3.72,0,0,0-3.75-.36.52.52,0,0,0-.21.71.54.54,0,0,0,.72.21,2.69,2.69,0,0,1,2.64.3,7.12,7.12,0,0,1,2,2.72A.5.5,0,0,0,92.46,411.92Z" transform="translate(-21.99 -68.48)"/><path class="cls-10" d="M88.39,414a.55.55,0,0,0,.42,0,.53.53,0,0,0,.3-.68,8.26,8.26,0,0,0-2.36-3.2,3.72,3.72,0,0,0-3.75-.36.52.52,0,0,0-.21.71.54.54,0,0,0,.72.21,2.66,2.66,0,0,1,2.64.3,7.12,7.12,0,0,1,2,2.72A.5.5,0,0,0,88.39,414Z" transform="translate(-21.99 -68.48)"/><path class="cls-5" d="M126.45,425.47a34.17,34.17,0,0,1,4.66-1.12c1,0,8.13,7.18,10.45,7.53,4.19.64,4.44,7,1.92,7.42-7.29,1.21-19.95-1.34-19.95-1.34s-1.47-8.13-1.07-10.71S124.43,426.31,126.45,425.47Z" transform="translate(-21.99 -68.48)"/><path class="cls-10" d="M132.79,432.21a.52.52,0,0,1-.4,0,.5.5,0,0,1-.16-.69,7.75,7.75,0,0,1,2.74-2.61,3.58,3.58,0,0,1,3.59.28.5.5,0,0,1,.08.7.52.52,0,0,1-.72.08,2.55,2.55,0,0,0-2.52-.16,6.94,6.94,0,0,0-2.31,2.23A.47.47,0,0,1,132.79,432.21Z" transform="translate(-21.99 -68.48)"/><path class="cls-10" d="M131.33,430.76a.51.51,0,0,1-.4-.05.49.49,0,0,1-.16-.69,7.75,7.75,0,0,1,2.74-2.61,3.53,3.53,0,0,1,3.58.28.49.49,0,0,1,.08.7.51.51,0,0,1-.71.08,2.54,2.54,0,0,0-2.53-.16,6.87,6.87,0,0,0-2.3,2.23A.47.47,0,0,1,131.33,430.76Z" transform="translate(-21.99 -68.48)"/><path class="cls-10" d="M134.8,433.42a.52.52,0,0,1-.4-.06.49.49,0,0,1-.16-.68,7.66,7.66,0,0,1,2.74-2.61,3.56,3.56,0,0,1,3.59.28.49.49,0,0,1,.08.7.53.53,0,0,1-.72.08,2.52,2.52,0,0,0-2.52-.16,6.74,6.74,0,0,0-2.31,2.23A.51.51,0,0,1,134.8,433.42Z" transform="translate(-21.99 -68.48)"/><path class="cls-11" d="M136.35,222s5.39,8.36,4.8,17.06.8,18.76-7,18.31-21.69,3.13-26.1-3.65S136.35,222,136.35,222Z" transform="translate(-21.99 -68.48)"/><path class="cls-18" d="M138.35,237.41s1.4,12.61-4.59,16.09-10.32-.41-10.32-.41S136.06,235.51,138.35,237.41Z" transform="translate(-21.99 -68.48)"/><path class="cls-16" d="M113.48,237.35s-2.15-2.87-3.75-.5.66,9.37,4.57,7.66Z" transform="translate(-21.99 -68.48)"/><path class="cls-17" d="M113.45,242.35a.33.33,0,0,1-.32-.24,5.15,5.15,0,0,0-2.87-3.05.32.32,0,0,1-.19-.42.34.34,0,0,1,.43-.2,5.72,5.72,0,0,1,3.27,3.49.34.34,0,0,1-.23.41Z" transform="translate(-21.99 -68.48)"/><path class="cls-17" d="M111.19,241.26a.37.37,0,0,1-.18,0,.33.33,0,0,1-.1-.46,3.07,3.07,0,0,1,1.24-1,.34.34,0,0,1,.44.17.33.33,0,0,1-.17.43,2.39,2.39,0,0,0-1,.76A.33.33,0,0,1,111.19,241.26Z" transform="translate(-21.99 -68.48)"/><path class="cls-16" d="M135.63,237.35s2.15-2.87,3.75-.5-.66,9.37-4.58,7.66Z" transform="translate(-21.99 -68.48)"/><path class="cls-17" d="M135.66,242.35a.34.34,0,0,0,.32-.24,5.1,5.1,0,0,1,2.87-3.05.33.33,0,0,0,.19-.42.35.35,0,0,0-.43-.2,5.72,5.72,0,0,0-3.27,3.49.33.33,0,0,0,.23.41Z" transform="translate(-21.99 -68.48)"/><path class="cls-17" d="M137.92,241.26a.41.41,0,0,0,.18,0,.34.34,0,0,0,.1-.46,3.16,3.16,0,0,0-1.24-1,.33.33,0,0,0-.44.17.32.32,0,0,0,.17.43,2.39,2.39,0,0,1,.95.76A.32.32,0,0,0,137.92,241.26Z" transform="translate(-21.99 -68.48)"/><path class="cls-9" d="M129.85,250.45v7S127.77,261,125,261.2s-5.3-3.05-5.3-3.05v-7.21Z" transform="translate(-21.99 -68.48)"/><path class="cls-16" d="M129.85,250.45v3.09c-1.89,2.09-5.23,2.83-10.19,2.1v-4.7Z" transform="translate(-21.99 -68.48)"/><path class="cls-9" d="M137.19,232.57a67.32,67.32,0,0,1-.91,8.8c-.13.67-.27,1.31-.43,1.87-1.47,5.13-5.13,13.93-15.39,10.27-4.53-1.62-6.64-6.67-7.57-11.8a49.84,49.84,0,0,1-.69-9.53,7.28,7.28,0,0,1,3.69-6.18c6.06-3.43,12.45-2.15,16.66-.54A7.26,7.26,0,0,1,137.19,232.57Z" transform="translate(-21.99 -68.48)"/><path class="cls-11" d="M120,238.42c0,.75-.38,1.35-.85,1.35s-.86-.6-.86-1.35.39-1.34.86-1.34S120,237.68,120,238.42Z" transform="translate(-21.99 -68.48)"/><path class="cls-11" d="M130.6,238.42c0,.75-.38,1.35-.86,1.35s-.85-.6-.85-1.35.38-1.34.85-1.34S130.6,237.68,130.6,238.42Z" transform="translate(-21.99 -68.48)"/><path class="cls-11" d="M117.48,233.94a14.29,14.29,0,0,1,3.66-.54.64.64,0,0,1,.64.74h0a.64.64,0,0,1-.66.52,15.94,15.94,0,0,0-5,.62,1,1,0,0,1,.29-.69A2.28,2.28,0,0,1,117.48,233.94Z" transform="translate(-21.99 -68.48)"/><path class="cls-11" d="M131.31,234a14.59,14.59,0,0,0-3.66-.55.63.63,0,0,0-.63.75h0a.63.63,0,0,0,.65.52,16.18,16.18,0,0,1,5,.61.93.93,0,0,0-.29-.68A2.28,2.28,0,0,0,131.31,234Z" transform="translate(-21.99 -68.48)"/><path class="cls-16" d="M124.67,243.9a1.35,1.35,0,0,1-.72-.18,1,1,0,0,1-.48-.8,46.1,46.1,0,0,1,.2-5.19.32.32,0,0,1,.35-.3.33.33,0,0,1,.31.35,48,48,0,0,0-.2,5.07.37.37,0,0,0,.16.31,2,2,0,0,0,1.33-.13.33.33,0,0,1,.43.18.34.34,0,0,1-.18.43A3.38,3.38,0,0,1,124.67,243.9Z" transform="translate(-21.99 -68.48)"/><path class="cls-10" d="M120.47,246c.25,1.26,1.08,3.58,3.88,3.58s3.59-2.12,3.86-3.58Z" transform="translate(-21.99 -68.48)"/><path class="cls-16" d="M124.31,251.49a3.24,3.24,0,0,1-1.55-.46.33.33,0,1,1,.34-.56h0a2.73,2.73,0,0,0,1.21.36,2.85,2.85,0,0,0,1.27-.36.32.32,0,0,1,.45.11.32.32,0,0,1-.11.45A3.41,3.41,0,0,1,124.31,251.49Z" transform="translate(-21.99 -68.48)"/><path class="cls-11" d="M138.52,232a1.09,1.09,0,0,1-.8.61,21.22,21.22,0,0,1-.12,2.45c-.41,4.78-1.61,5.62-1.89,4.44a58.76,58.76,0,0,1-.08-6.76,15.11,15.11,0,0,1-1.75-.22l-1.11-4.64-.39,4.59c-1.66.57-5.54-.35-5.54-.35l-1.3-4.58-.81,4.4a9.23,9.23,0,0,1-5.61.41l-.72-4.75-1.65,4.75s-5.32,1.91-5.38,0a36,36,0,0,1,1.47-6.66,10,10,0,0,1,4.83-6.14,17.64,17.64,0,0,1,16-.23C138.73,222.38,138.52,232,138.52,232Z" transform="translate(-21.99 -68.48)"/><path class="cls-11" d="M114.3,222.39s-4.38,5.21-5.82,14.52-3.44,16.18,2.17,19.26c6.07,3.32,5.54-3.5,5.46-5.35s-5.25-6.92-1.81-21.2C115.41,225,114.3,222.39,114.3,222.39Z" transform="translate(-21.99 -68.48)"/><path class="cls-18" d="M113.28,241.62v0c0,.06,0,.44,0,1,0,.36,0,.8.07,1.3.21,3.13.82,8.55,2.61,10.43a6,6,0,0,0,3.67,1.26v-2.46a9.69,9.69,0,0,1-4-3.75,23.11,23.11,0,0,1-2.23-6.88Z" transform="translate(-21.99 -68.48)"/><path class="cls-10" d="M137.26,244.67a.77.77,0,0,1-.77.78.78.78,0,0,1-.78-.78.77.77,0,0,1,.78-.77A.76.76,0,0,1,137.26,244.67Z" transform="translate(-21.99 -68.48)"/><rect class="cls-6" x="327.11" y="85.17" width="24.29" height="24.29" rx="2.64"/><path class="cls-8" d="M369.52,165.79a8.28,8.28,0,1,1-8.27-8.27A8.21,8.21,0,0,1,369.52,165.79Z" transform="translate(-21.99 -68.48)"/><path class="cls-10" d="M367.62,171.06a8.27,8.27,0,0,1-12.75,0l.11-.22a3.1,3.1,0,0,1,.72-.92,2.85,2.85,0,0,1,1-.55c1.35-.41,2.59-.83,3.3-2a3.53,3.53,0,0,1-1.66-1.77c-.94.2-1.61-1.53-1.11-2a.72.72,0,0,1,.55-.22,3.44,3.44,0,0,1,6.87,0,.72.72,0,0,1,.55.22c.5.46-.17,2.19-1.11,2a3.14,3.14,0,0,1-1.53,1.66,5,5,0,0,0,3.17,2.14,2.85,2.85,0,0,1,1,.55,2.94,2.94,0,0,1,.72.92Z" transform="translate(-21.99 -68.48)"/><rect class="cls-6" x="11.49" y="214.34" width="24.29" height="24.29" rx="2.64"/><path class="cls-10" d="M46,286.91a5.32,5.32,0,0,0-5.68,5.3,5.2,5.2,0,0,0,.75,2.71c.7,1.19,1.43,2.36,2.09,3.57L45.66,303l3.85-6.93c.22-.41.47-.8.7-1.2a5.28,5.28,0,0,0,.73-2.82A5.35,5.35,0,0,0,46,286.91Zm-.36,6.91a2.25,2.25,0,1,1,2.24-2.24A2.24,2.24,0,0,1,45.62,293.82Z" transform="translate(-21.99 -68.48)"/><path class="cls-5" d="M454.26,185.94a5.42,5.42,0,1,1-5.42,5.42A5.43,5.43,0,0,1,454.26,185.94Zm0,9.14a3.72,3.72,0,1,0-3.72-3.72A3.73,3.73,0,0,0,454.26,195.08Z" transform="translate(-21.99 -68.48)"/><path class="cls-6" d="M434.74,166.91a5.43,5.43,0,1,1-5.42,5.43A5.44,5.44,0,0,1,434.74,166.91Zm0,9.15a3.72,3.72,0,1,0-3.72-3.72A3.73,3.73,0,0,0,434.74,176.06Z" transform="translate(-21.99 -68.48)"/><path class="cls-5" d="M428,149.29a.85.85,0,0,1,.85.85v3.75a.85.85,0,1,1-1.7,0v-3.75A.85.85,0,0,1,428,149.29Z" transform="translate(-21.99 -68.48)"/><path class="cls-5" d="M428,142.73a.85.85,0,0,1,.85.85v3.75a.85.85,0,1,1-1.7,0v-3.75A.85.85,0,0,1,428,142.73Z" transform="translate(-21.99 -68.48)"/><path class="cls-5" d="M422.78,147.89h3.37a.85.85,0,0,1,0,1.7h-3.37a.85.85,0,1,1,0-1.7Z" transform="translate(-21.99 -68.48)"/><path class="cls-5" d="M429.94,147.89h3.37a.85.85,0,0,1,0,1.7h-3.37a.85.85,0,0,1,0-1.7Z" transform="translate(-21.99 -68.48)"/><path class="cls-6" d="M458,170.31a.85.85,0,0,1,.85.85v3.75a.85.85,0,1,1-1.7,0v-3.75A.85.85,0,0,1,458,170.31Z" transform="translate(-21.99 -68.48)"/><path class="cls-6" d="M458,163.75a.85.85,0,0,1,.85.85v3.75a.85.85,0,1,1-1.7,0V164.6A.85.85,0,0,1,458,163.75Z" transform="translate(-21.99 -68.48)"/><path class="cls-6" d="M452.72,168.91h3.37a.85.85,0,1,1,0,1.7h-3.37a.85.85,0,1,1,0-1.7Z" transform="translate(-21.99 -68.48)"/><path class="cls-6" d="M459.88,168.91h3.37a.85.85,0,1,1,0,1.7h-3.37a.85.85,0,1,1,0-1.7Z" transform="translate(-21.99 -68.48)"/><path class="cls-5" d="M118.45,116.7a5.42,5.42,0,1,1-5.42,5.42A5.43,5.43,0,0,1,118.45,116.7Zm0,1.7a3.72,3.72,0,1,0,3.73,3.72A3.73,3.73,0,0,0,118.45,118.4Z" transform="translate(-21.99 -68.48)"/><path class="cls-6" d="M98.71,98.78a5.43,5.43,0,1,1-5.43,5.43A5.43,5.43,0,0,1,98.71,98.78Zm0,1.71a3.72,3.72,0,1,0,3.72,3.72A3.73,3.73,0,0,0,98.71,100.49Z" transform="translate(-21.99 -68.48)"/><path class="cls-5" d="M91.55,129.78a.85.85,0,0,0,.85.85h3.75a.85.85,0,0,0,0-1.7H92.4A.85.85,0,0,0,91.55,129.78Z" transform="translate(-21.99 -68.48)"/><path class="cls-5" d="M85,129.78a.85.85,0,0,0,.85.85h3.75a.85.85,0,0,0,0-1.7H85.84A.85.85,0,0,0,85,129.78Z" transform="translate(-21.99 -68.48)"/><path class="cls-5" d="M90.15,124.52v3.37a.85.85,0,1,0,1.7,0v-3.37a.85.85,0,1,0-1.7,0Z" transform="translate(-21.99 -68.48)"/><path class="cls-5" d="M90.15,131.68v3.37a.85.85,0,0,0,1.7,0v-3.37a.85.85,0,0,0-1.7,0Z" transform="translate(-21.99 -68.48)"/><path class="cls-6" d="M131.27,100.49a.85.85,0,0,0,.85.85h3.76a.85.85,0,0,0,0-1.7h-3.76A.85.85,0,0,0,131.27,100.49Z" transform="translate(-21.99 -68.48)"/><path class="cls-6" d="M124.71,100.49a.85.85,0,0,0,.85.85h3.75a.85.85,0,1,0,0-1.7h-3.75A.85.85,0,0,0,124.71,100.49Z" transform="translate(-21.99 -68.48)"/><path class="cls-6" d="M129.87,95.22v3.37a.85.85,0,0,0,1.7,0V95.22a.85.85,0,0,0-1.7,0Z" transform="translate(-21.99 -68.48)"/><path class="cls-6" d="M129.87,102.38v3.37a.85.85,0,1,0,1.7,0v-3.37a.85.85,0,1,0-1.7,0Z" transform="translate(-21.99 -68.48)"/><path class="cls-2" d="M357.38,126.66a.73.73,0,0,0,.36,0c1.29-.31,2-.44,2-.44a.69.69,0,0,0,.58-.79.72.72,0,0,0-.83-.54s-.8.14-2.15.47a.67.67,0,0,0-.52.82A.69.69,0,0,0,357.38,126.66Z" transform="translate(-21.99 -68.48)"/><path class="cls-2" d="M315.71,157.53c-.67,1.15-1.32,2.33-1.92,3.53a.73.73,0,0,1-.82.36l-.13,0a.66.66,0,0,1-.35-.9c.62-1.22,1.27-2.43,2-3.6a.74.74,0,0,1,1-.26A.65.65,0,0,1,315.71,157.53Z" transform="translate(-21.99 -68.48)"/><path class="cls-2" d="M312.11,164.69c-.52,1.2-1,2.45-1.47,3.71a.72.72,0,0,1-.85.44l-.06,0a.67.67,0,0,1-.45-.85c.47-1.28,1-2.56,1.49-3.79a.74.74,0,0,1,.94-.37A.67.67,0,0,1,312.11,164.69Z" transform="translate(-21.99 -68.48)"/><path class="cls-2" d="M306,184.41a.67.67,0,0,1-.53-.73c.18-1.35.4-2.69.64-4a.72.72,0,0,1,.83-.55.68.68,0,0,1,.58.78c-.24,1.29-.45,2.61-.63,3.93a.7.7,0,0,1-.8.58Z" transform="translate(-21.99 -68.48)"/><path class="cls-2" d="M308.9,171.36a.67.67,0,0,1,.5.83c-.17.59-.34,1.19-.5,1.77s-.36,1.38-.53,2.07a.73.73,0,0,1-.86.51h0a.68.68,0,0,1-.52-.8c.17-.71.35-1.41.54-2.11s.33-1.2.51-1.81a.72.72,0,0,1,.87-.47Z" transform="translate(-21.99 -68.48)"/><path class="cls-2" d="M317.85,154.12a.74.74,0,0,1-.79.3.72.72,0,0,1-.2-.09.65.65,0,0,1-.23-.93c.77-1.13,1.58-2.26,2.42-3.34a.74.74,0,0,1,1-.15.65.65,0,0,1,.16.94C319.39,151.91,318.59,153,317.85,154.12Z" transform="translate(-21.99 -68.48)"/><path class="cls-2" d="M353.71,127.81c-1.31.42-2.63.89-3.94,1.4a.78.78,0,0,1-.45,0,.69.69,0,0,1-.49-.4.66.66,0,0,1,.39-.88c1.34-.52,2.69-1,4-1.43a.73.73,0,0,1,.91.42A.66.66,0,0,1,353.71,127.81Z" transform="translate(-21.99 -68.48)"/><path class="cls-2" d="M342.17,132.66a.82.82,0,0,1-.53.06.7.7,0,0,1-.45-.32.66.66,0,0,1,.28-.92c1.25-.65,2.53-1.28,3.82-1.86a.73.73,0,0,1,1,.31.66.66,0,0,1-.34.9C344.65,131.4,343.39,132,342.17,132.66Z" transform="translate(-21.99 -68.48)"/><path class="cls-2" d="M328.56,142a.74.74,0,0,1-.67.16.67.67,0,0,1-.31-1.14c1-.92,2.13-1.82,3.23-2.67a.74.74,0,0,1,1,.09.65.65,0,0,1-.09.95C330.65,140.18,329.58,141.06,328.56,142Z" transform="translate(-21.99 -68.48)"/><path class="cls-2" d="M335.06,136.92a.76.76,0,0,1-.6.11.72.72,0,0,1-.4-.26.64.64,0,0,1,.16-.94c1.15-.78,2.34-1.55,3.55-2.28a.75.75,0,0,1,1,.21.65.65,0,0,1-.21.93C337.36,135.4,336.19,136.15,335.06,136.92Z" transform="translate(-21.99 -68.48)"/><path class="cls-2" d="M322.79,147.72a.72.72,0,0,1-.73.22.6.6,0,0,1-.28-.13.65.65,0,0,1-.1-.95c.91-1,1.87-2.05,2.85-3a.76.76,0,0,1,1,0,.65.65,0,0,1,0,.95C324.62,145.71,323.68,146.71,322.79,147.72Z" transform="translate(-21.99 -68.48)"/><polygon class="cls-5" points="336.11 53.63 334.66 42.4 372.69 47.86 336.11 53.63"/><polygon class="cls-3" points="372.69 47.86 337.56 56.49 337.46 56.51 335.7 58.53 336.11 53.63 372.69 47.86"/><polygon class="cls-4" points="335.7 58.53 338.86 58.49 337.46 56.51 335.7 58.53"/><polygon class="cls-5" points="341.88 55.42 337.46 56.51 344.65 66.75 372.69 47.86 341.88 55.42"/></g></g></svg>